# xmcd CD database file
#
# Track frame offsets:
#	150
#	24236
#	49853
#	88510
#	103457
#	138345
#	149755
#	169141
#	185626
#	216545
#	240595
#	255979
#	296256
#
# Disc length: 4147 seconds
#
# Revision: 3
# Processed by: cddbd v1.5.2PL0 Copyright (c) Steve Scherf et al.
# Submitted via: CDex 1.70beta2
#
DISCID=c310310d
DTITLE=Sidney Bechet - Petite Fleur - CD 4
DYEAR=2005
DGENRE=Jazz
TTITLE0=Muskrat Ramble
TTITLE1=St. Louis Blues
TTITLE2=Sweet Georgia Brown
TTITLE3=Summertime
TTITLE4=I Found A New Baby
TTITLE5=September Song
TTITLE6=High Society
TTITLE7=Dippermouth Blues
TTITLE8=I Got Rhythm
TTITLE9=Frankie And Johnny
TTITLE10=Casey Jones
TTITLE11=Society Blues
TTITLE12=Petite Fleur
EXTD=YEAR: 2005
EXTT0=
EXTT1=
EXTT2=
EXTT3=
EXTT4=
EXTT5=
EXTT6=
EXTT7=
EXTT8=
EXTT9=
EXTT10=
EXTT11=
EXTT12=
PLAYORDER=
